<svg xmlns="http://www.w3.org/2000/svg" width="29" height="29" viewBox="0 0 29 29">
  <g id="Group_1941" data-name="Group 1941" transform="translate(-491 -7918)">
    <circle id="Ellipse_158" data-name="Ellipse 158" cx="14.5" cy="14.5" r="14.5" transform="translate(491 7918)" fill="#fff"/>
    <path id="Icon_feather-phone-call" data-name="Icon feather-phone-call" d="M12.663,4.436a3.67,3.67,0,0,1,2.9,2.9M12.663,1.5A6.605,6.605,0,0,1,18.5,7.327m-.734,5.857v2.2a1.468,1.468,0,0,1-1.6,1.468A14.524,14.524,0,0,1,9.83,14.6a14.311,14.311,0,0,1-4.4-4.4A14.524,14.524,0,0,1,3.174,3.834a1.468,1.468,0,0,1,1.46-1.6h2.2A1.468,1.468,0,0,1,8.3,3.5a9.423,9.423,0,0,0,.514,2.062,1.468,1.468,0,0,1-.33,1.549l-.932.932a11.743,11.743,0,0,0,4.4,4.4l.932-.932a1.468,1.468,0,0,1,1.549-.33,9.423,9.423,0,0,0,2.062.514A1.468,1.468,0,0,1,17.764,13.184Z" transform="translate(494.332 7923)" fill="none" stroke="#ea0000" stroke-linecap="round" stroke-linejoin="round" stroke-width="1.5"/>
  </g>
</svg>
