<svg xmlns="http://www.w3.org/2000/svg" width="29" height="29" viewBox="0 0 29 29">
  <g id="Group_1942" data-name="Group 1942" transform="translate(-775 -7918)">
    <circle id="Ellipse_159" data-name="Ellipse 159" cx="14.5" cy="14.5" r="14.5" transform="translate(775 7918)" fill="#fff"/>
    <path id="Icon_simple-email" data-name="Icon simple-email" d="M16.961,7.788a8.7,8.7,0,0,1-.28,1.887,5.462,5.462,0,0,1-.734,1.658A3.873,3.873,0,0,1,14.7,12.511a3.512,3.512,0,0,1-1.817.448,2.634,2.634,0,0,1-1.314-.322,2.25,2.25,0,0,1-.888-.91,2.814,2.814,0,0,1-2.381,1.2,2.421,2.421,0,0,1-2.078-1.118,3.659,3.659,0,0,1-.517-1.295,5.584,5.584,0,0,1-.067-1.689,7.847,7.847,0,0,1,.515-2.069,5.623,5.623,0,0,1,.951-1.585,4.024,4.024,0,0,1,1.308-1.01A3.648,3.648,0,0,1,10,3.8a4.944,4.944,0,0,1,.951.081,3.893,3.893,0,0,1,.738.221,3.991,3.991,0,0,1,.612.323c.187.12.374.245.561.371L12.4,10.115a1.767,1.767,0,0,0,.014.622.87.87,0,0,0,.19.384.683.683,0,0,0,.308.2A1.143,1.143,0,0,0,14,11.109a2.306,2.306,0,0,0,.58-.738,4.754,4.754,0,0,0,.39-1.109,7.611,7.611,0,0,0,.171-1.381A8.828,8.828,0,0,0,14.921,5.3a5.131,5.131,0,0,0-.955-2,4.436,4.436,0,0,0-1.712-1.286,6.215,6.215,0,0,0-2.495-.457A5.509,5.509,0,0,0,7.291,2.1,5.661,5.661,0,0,0,5.416,3.587,7.156,7.156,0,0,0,4.189,5.83a10.107,10.107,0,0,0-.517,2.794,9.292,9.292,0,0,0,.264,2.851,5.15,5.15,0,0,0,1.042,2.044,4.348,4.348,0,0,0,1.765,1.227,6.771,6.771,0,0,0,2.436.407,8.343,8.343,0,0,0,1.6-.172c.264-.053.514-.116.752-.186a5.658,5.658,0,0,0,.647-.232l.334,1.5a3.71,3.71,0,0,1-.724.359,6.973,6.973,0,0,1-.856.248,8.355,8.355,0,0,1-1.788.2,9.378,9.378,0,0,1-3.26-.525A6,6,0,0,1,3.5,14.787a6.563,6.563,0,0,1-1.427-2.58,11.006,11.006,0,0,1-.4-3.582,10.924,10.924,0,0,1,.685-3.438A8.507,8.507,0,0,1,4.016,2.456,7.525,7.525,0,0,1,6.535.654,7.887,7.887,0,0,1,9.8,0a8.234,8.234,0,0,1,3.161.566A6.149,6.149,0,0,1,15.24,2.158a6.534,6.534,0,0,1,1.354,2.46A9.406,9.406,0,0,1,16.961,7.788ZM7.906,8.822A3.587,3.587,0,0,0,8.091,10.6a.954.954,0,0,0,.917.6,1.013,1.013,0,0,0,.314-.058,1.121,1.121,0,0,0,.362-.217,1.93,1.93,0,0,0,.367-.443,3.4,3.4,0,0,0,.337-.749l.361-4.129a2.155,2.155,0,0,0-.561-.074,1.94,1.94,0,0,0-.933.214,1.847,1.847,0,0,0-.661.628,3.691,3.691,0,0,0-.439,1.033,8.766,8.766,0,0,0-.249,1.413Z" transform="translate(780.33 7924)" fill="#ea0000"/>
  </g>
</svg>
