<svg xmlns="http://www.w3.org/2000/svg" width="29" height="29" viewBox="0 0 29 29">
  <g id="Group_1943" data-name="Group 1943" transform="translate(-1152 -7918)">
    <circle id="Ellipse_160" data-name="Ellipse 160" cx="14.5" cy="14.5" r="14.5" transform="translate(1152 7918)" fill="#fff"/>
    <path id="Icon_metro-earth" data-name="Icon metro-earth" d="M12.064,1.928a9.493,9.493,0,1,0,9.493,9.493,9.493,9.493,0,0,0-9.493-9.493Zm0,17.8a8.279,8.279,0,0,1-3.286-.676L13.1,14.189a.593.593,0,0,0,.15-.394v-1.78a.593.593,0,0,0-.593-.593c-2.1,0-4.306-2.178-4.327-2.2a.593.593,0,0,0-.42-.174H5.537a.593.593,0,0,0-.593.593V13.2a.593.593,0,0,0,.328.531l2.045,1.023v3.484A8.312,8.312,0,0,1,4.557,7.861H6.724a.593.593,0,0,0,.42-.174L9.517,5.314a.593.593,0,0,0,.174-.42V3.459a8.33,8.33,0,0,1,6.013.493c-.077.065-.152.133-.223.2A3.56,3.56,0,0,0,18,10.235q.088,0,.176,0a13.934,13.934,0,0,1-.156,6.9.591.591,0,0,0-.016.1,8.281,8.281,0,0,1-5.936,2.5Z" transform="translate(1154.429 7921.072)" fill="#ea0000"/>
  </g>
</svg>
